# xmcd
#
# Track frame offsets:
#	150
#	16539
#	34000
#	49525
#	65646
#	85673
#	101945
#	118774
#	132786
#	149519
#	174978
#	197396
#	228237
#	252123
#	283226
#	304784
#	337301
#
# Disc length: 4731 seconds
#
# Revision: 0
# Processed by: cddbd v1.5.2PL0 Copyright (c) Steve Scherf et al.
# Submitted via: EZCDAudioConverter 1.3.4.1
#
DISCID=ec127911
DTITLE=Robert Palmer - Pride
DYEAR=1900
DGENRE=
TTITLE0=Pride
TTITLE1=Deadline
TTITLE2=Want You More
TTITLE3=Dance For Me
TTITLE4=You Are In My System
TTITLE5=It's Not Difficult
TTITLE6=Say You Will
TTITLE7=You Can Have It (Take My Heart)
TTITLE8=What You Waiting For
TTITLE9=The Silver Gun
TTITLE10=You Are In My System [12'' Mix]
TTITLE11=Ain't It Funky [Si Chatouillieux - Extended Version]
TTITLE12=Pride [12'' Mix]
TTITLE13=Parade Of The Obliterators
TTITLE14=You Can Have It [12'' Mix]
TTITLE15=You Are In My System [Instrumental]
TTITLE16=Deadline [12'' Mix]
EXTD=
EXTT0=
EXTT1=
EXTT2=
EXTT3=
EXTT4=
EXTT5=
EXTT6=
EXTT7=
EXTT8=
EXTT9=
EXTT10=
EXTT11=
EXTT12=
EXTT13=
EXTT14=
EXTT15=
EXTT16=
PLAYORDER=
